<?xml version="1.0" standalone="no"?><!DOCTYPE svg PUBLIC "-//W3C//DTD SVG 1.1//EN" "http://www.w3.org/Graphics/SVG/1.1/DTD/svg11.dtd"><svg t="1640877865535" class="icon" viewBox="0 0 1024 1024" version="1.1" xmlns="http://www.w3.org/2000/svg" p-id="2548" xmlns:xlink="http://www.w3.org/1999/xlink" width="200" height="200"><defs><style type="text/css"></style></defs><path d="M512 106.666667a405.333333 405.333333 0 1 0 405.333333 405.333333A405.333333 405.333333 0 0 0 512 106.666667z m0 768a362.666667 362.666667 0 1 1 362.666667-362.666667 362.666667 362.666667 0 0 1-362.666667 362.666667z" p-id="2549"></path><path d="M561.28 360.32a69.973333 69.973333 0 0 0-98.56 0l-102.4 102.4a69.973333 69.973333 0 0 0 0 98.56l102.4 102.4a69.973333 69.973333 0 0 0 98.56 0l102.4-102.4a69.973333 69.973333 0 0 0 0-98.56z m72.106667 170.666667l-102.4 102.4a26.453333 26.453333 0 0 1-37.973334 0l-102.4-102.4a26.453333 26.453333 0 0 1 0-37.973334l102.4-102.4a26.88 26.88 0 0 1 37.973334 0l102.4 102.4a26.453333 26.453333 0 0 1 0 37.973334z" p-id="2550"></path></svg>